<?xml version="1.0" standalone="no"?>
<!DOCTYPE svg PUBLIC "-//W3C//DTD SVG 20010904//EN"
 "http://www.w3.org/TR/2001/REC-SVG-20010904/DTD/svg10.dtd">
<svg version="1.0" xmlns="http://www.w3.org/2000/svg"
 width="260.000000pt" height="260.000000pt" viewBox="0 0 260.000000 260.000000"
 preserveAspectRatio="xMidYMid meet">
<metadata>
Created by potrace 1.11, written by Peter Selinger 2001-2013
</metadata>
<g transform="translate(0.000000,260.000000) scale(0.100000,-0.100000)"
fill="#000000" stroke="none">
<path d="M372 2401 c-30 -10 -71 -35 -92 -56 -73 -71 -70 -25 -70 -1020 l0
-891 26 -53 c30 -60 81 -102 146 -120 32 -9 151 -11 448 -8 370 3 412 5 484
24 53 14 87 18 102 13 55 -21 185 -41 269 -41 299 0 547 143 668 386 49 96 65
149 89 289 22 134 21 185 -13 350 -23 116 -55 196 -114 286 -44 69 -126 153
-189 196 -104 71 -282 124 -417 124 l-66 0 -6 58 c-18 170 -134 336 -285 408
-133 63 -163 67 -562 71 -337 3 -369 2 -418 -16z m683 -449 c52 -30 83 -76 91
-134 11 -77 -3 -135 -42 -178 -52 -57 -101 -70 -266 -70 l-138 0 0 206 0 206
158 -4 c141 -3 161 -6 197 -26z m777 -429 c57 -26 129 -91 162 -147 51 -88 70
-170 70 -306 0 -186 -37 -298 -128 -390 -44 -45 -89 -72 -148 -88 -44 -12 -45
-10 -19 49 26 60 51 185 51 259 0 81 -26 192 -61 261 -56 113 -175 214 -297
254 -44 14 -51 19 -41 31 21 26 70 57 128 81 48 20 69 23 146 20 64 -2 103 -9
137 -24z m-909 -520 c5 -116 16 -177 52 -290 l7 -23 -141 0 -141 0 0 220 0
220 109 0 108 0 6 -127z"/>
</g>
</svg>
