<?xml version="1.0" standalone="no"?>
<!DOCTYPE svg PUBLIC "-//W3C//DTD SVG 20010904//EN"
 "http://www.w3.org/TR/2001/REC-SVG-20010904/DTD/svg10.dtd">
<svg version="1.0" xmlns="http://www.w3.org/2000/svg"
 width="979.000000pt" height="979.000000pt" viewBox="0 0 979.000000 979.000000"
 preserveAspectRatio="xMidYMid meet">
<metadata>
Created by potrace 1.11, written by Peter Selinger 2001-2013
</metadata>
<g transform="translate(0.000000,979.000000) scale(0.100000,-0.100000)"
fill="#000000" stroke="none">
<path d="M955 9550 c-352 -64 -628 -277 -766 -594 -28 -66 -68 -226 -76 -306
-4 -36 -7 -1721 -7 -3745 0 -3445 1 -3686 17 -3772 44 -229 132 -399 287 -553
153 -152 382 -259 615 -286 33 -4 697 -7 1475 -7 1231 0 1584 3 1740 17 62 6
154 17 185 22 17 3 46 6 65 8 19 2 49 6 65 9 17 4 48 9 70 12 87 12 365 79
458 109 53 18 97 29 97 26 0 -3 17 -11 38 -17 20 -6 75 -23 122 -37 178 -56
422 -106 636 -131 224 -26 590 -30 814 -9 554 52 1041 210 1457 471 94 59 248
168 279 197 7 6 31 27 55 46 80 63 304 293 389 400 257 323 455 710 575 1123
36 122 80 302 91 373 3 21 7 41 9 44 2 3 8 42 14 86 7 44 14 91 16 104 3 14 7
54 11 90 3 36 8 81 10 100 23 222 23 687 0 905 -11 99 -18 154 -22 185 -10 67
-33 205 -39 230 -3 14 -8 39 -11 55 -34 192 -139 525 -229 730 -293 662 -737
1143 -1358 1471 -65 34 -119 62 -120 61 -1 0 -18 7 -37 16 -265 121 -655 226
-975 262 -33 4 -73 9 -90 11 -75 8 -273 17 -409 18 l-149 1 -3 35 c-2 19 -5
64 -8 100 -17 219 -77 481 -158 690 -225 576 -661 1012 -1256 1255 -168 68
-396 134 -552 160 -19 3 -46 8 -60 10 -34 7 -83 14 -155 21 -33 3 -73 8 -90
12 -16 3 -680 7 -1475 8 -1360 3 -1451 2 -1545 -16z m2345 -1864 c139 -10 188
-19 295 -53 372 -119 561 -411 549 -848 -3 -142 -34 -292 -75 -367 -11 -21
-17 -38 -13 -38 4 0 0 -8 -8 -17 -8 -10 -24 -34 -35 -53 -29 -52 -100 -126
-168 -176 -33 -24 -64 -47 -70 -52 -18 -13 -107 -53 -154 -69 -85 -29 -141
-41 -266 -60 -53 -7 -1126 -9 -1131 -1 -4 6 -6 972 -4 1640 l0 97 38 3 c66 5
954 0 1042 -6z m3265 -1830 c175 -9 370 -56 513 -122 41 -19 75 -34 78 -34 13
0 195 -120 246 -163 286 -237 486 -581 592 -1017 39 -158 56 -267 75 -468 9
-87 7 -559 -2 -597 -3 -11 -8 -47 -11 -80 -7 -62 -13 -102 -21 -145 -3 -14 -7
-41 -10 -60 -3 -19 -11 -53 -16 -75 -6 -22 -12 -47 -14 -55 -38 -191 -163
-494 -275 -665 -226 -344 -566 -581 -932 -649 -12 -2 -40 -7 -60 -11 -21 -4
-38 -5 -38 -2 0 2 22 51 49 108 73 154 148 357 176 476 29 122 46 200 50 231
3 20 8 47 11 60 2 12 7 44 10 70 3 26 7 58 9 72 9 51 19 239 18 360 -1 220
-17 367 -67 597 -43 197 -157 474 -276 668 -162 265 -430 532 -703 702 -182
112 -428 218 -621 268 l-90 23 65 67 c162 170 373 303 584 369 70 22 163 46
199 51 17 3 57 9 90 13 32 5 99 10 149 11 51 1 93 4 95 6 2 2 9 2 15 0 7 -2
57 -6 112 -9z m-3422 -1826 c-4 -74 -3 -478 2 -535 2 -33 7 -94 10 -135 3 -41
8 -86 10 -100 2 -14 7 -52 10 -85 3 -33 8 -69 10 -80 3 -11 7 -36 9 -55 6 -40
43 -235 50 -265 3 -11 12 -49 21 -85 27 -111 83 -291 125 -400 22 -58 40 -110
40 -115 0 -7 -198 -11 -605 -11 -407 0 -605 4 -605 11 -1 14 -1 1788 0 1846
l0 46 463 -1 462 -1 -2 -35z"/>
</g>
</svg>
